<svg width="224" height="248" viewBox="0 0 224 248" fill="none" xmlns="http://www.w3.org/2000/svg">
<path d="M244.83 82.8929C242.337 80.4003 238.956 79 235.43 79C231.905 79 228.524 80.4003 226.031 82.8929L216.44 92.4843C212.944 95.9794 210.31 100.241 208.748 104.931L207.236 109.466C206.459 111.805 205.412 114.044 204.115 116.14C201.727 120 198.542 123.306 194.773 125.835C191.004 128.365 186.738 130.06 182.261 130.807L173.527 132.263L198.592 157.329V150.381C198.593 144.663 200.306 139.076 203.512 134.341C206.717 129.606 211.268 125.94 216.577 123.816L221.339 121.912C224.935 120.472 228.202 118.318 230.942 115.579L244.83 101.692C247.322 99.1987 248.723 95.8177 248.723 92.2923C248.723 88.767 247.322 85.3859 244.83 82.8929L244.83 82.8929ZM236.19 94.6657C235.57 94.6657 234.965 94.482 234.449 94.1377C233.934 93.7934 233.533 93.3041 233.296 92.7316C233.058 92.1591 232.996 91.5291 233.117 90.9213C233.238 90.3136 233.537 89.7553 233.975 89.3171C234.413 88.8789 234.971 88.5805 235.579 88.4596C236.187 88.3387 236.817 88.4008 237.389 88.6379C237.962 88.8751 238.451 89.2767 238.795 89.7919C239.14 90.3071 239.323 90.9129 239.323 91.5326C239.323 91.9441 239.242 92.3515 239.085 92.7317C238.928 93.1119 238.697 93.4573 238.406 93.7483C238.115 94.0393 237.769 94.27 237.389 94.4275C237.009 94.5849 236.602 94.6658 236.19 94.6657V94.6657Z" fill="#C4D4E0"/>
<path d="M75.8662 222.11L81.4605 228.494C87.6217 235.525 95.4121 240.94 104.15 244.263C112.888 247.586 122.307 248.718 131.584 247.558L137.226 246.853C149.47 245.322 161.19 240.962 171.456 234.118C181.723 227.273 190.255 218.132 196.377 207.419L196.377 207.419C201.731 198.049 204.326 187.356 203.862 176.575C203.398 165.794 199.894 155.363 193.755 146.488V146.488L75.8662 222.11Z" fill="#E44B4D"/>
<path d="M169.188 215.206C169.174 215.217 169.16 215.228 169.145 215.237C164.621 218.588 159.834 221.568 154.83 224.147C149.207 227.062 143.329 229.456 137.269 231.298C108.299 240.071 80.5393 233.938 70.6269 214.747C58.717 191.688 77.1007 158.508 111.691 140.641C146.281 122.77 183.98 126.976 195.894 150.04C206.03 169.658 194.233 196.599 169.188 215.206V215.206Z" fill="#395166"/>
<path d="M169.188 215.206C169.174 215.217 169.16 215.228 169.145 215.237C164.621 218.588 159.834 221.568 154.83 224.147C149.207 227.062 143.329 229.456 137.269 231.298C118.345 235.818 101.105 231.667 94.6346 219.533C86.085 203.5 99.5732 179.613 124.768 166.176C149.958 152.739 177.314 154.846 185.864 170.876C192.729 183.745 185.386 201.682 169.188 215.206V215.206Z" fill="#2F4054"/>
<path d="M173.527 147.929C175.258 147.929 176.66 146.526 176.66 144.796C176.66 143.066 175.258 141.663 173.527 141.663C171.797 141.663 170.394 143.066 170.394 144.796C170.394 146.526 171.797 147.929 173.527 147.929Z" fill="#A6B2BC"/>
<path d="M186.06 154.196C187.79 154.196 189.193 152.793 189.193 151.062C189.193 149.332 187.79 147.929 186.06 147.929C184.329 147.929 182.927 149.332 182.927 151.062C182.927 152.793 184.329 154.196 186.06 154.196Z" fill="#A6B2BC"/>
<g filter="url(#filter0_d)">
<path d="M177.455 103.967L170.686 104.228L170.603 104.233L170.748 105.901L158.007 105.964L157.692 107.582L177.191 111.915L177.455 103.967Z" fill="#6CAC34"/>
<path d="M177.403 105.519L177.455 103.967L170.686 104.228L170.603 104.233L170.741 105.79L177.403 105.519Z" fill="#74A534"/>
<path d="M158.481 109.595L157.297 108.614L170.891 114.777L175.502 117.915L172.385 121.294L158.481 109.595Z" fill="#6CAC34"/>
<path d="M175.502 117.915L170.891 114.777L157.297 108.614L161.28 111.956L174.639 118.858L175.502 117.915Z" fill="#7EB239"/>
<path d="M158.616 104.608L160.289 104.273L170.44 102.26L170.347 101.079L160.357 102.799L158.791 103.071C157.88 103.755 157.153 105.481 157.052 106.946C157.416 105.961 157.981 105.075 158.616 104.608V104.608Z" fill="#8ECC3E"/>
<path d="M155.807 93.6245C156.334 94.239 156.807 94.8846 157.2 95.5907C157.579 96.2475 157.905 96.9354 158.181 97.6374C158.406 98.3257 158.571 99.0344 158.664 99.7418L158.659 99.7588C157.254 99.6371 155.536 101.835 154.726 104.858C153.916 107.881 154.305 110.643 155.583 111.24C155.138 111.813 154.647 112.354 154.097 112.844C151.895 114.575 147.974 116.81 143.809 114.893C143.557 114.78 143.31 114.65 143.057 114.51L118.624 101.037L104.612 93.2772C103.005 92.3097 103.665 89.847 105.54 89.8125L116.532 90.0272L149.474 90.6624C152.327 90.6806 154.36 91.9901 155.807 93.6245V93.6245Z" fill="#FFAA4F"/>
<path d="M118.882 101.16L120.637 101.066L153.533 99.3591C154.919 99.248 156.309 99.4932 157.581 100.08C157.896 99.8547 158.28 99.7481 158.665 99.7696L158.67 99.7526C158.571 99.0344 158.406 98.3257 158.187 97.6481C157.911 96.9462 157.575 96.2645 157.206 95.6014C156.802 94.9016 156.334 94.239 155.813 93.6352C154.377 91.9946 152.333 90.6913 149.475 90.6902L116.527 90.0442L105.536 89.8295C103.66 89.864 103.001 92.3267 104.607 93.2942L118.641 101.041L118.882 101.16Z" fill="#FF9C38"/>
<path d="M155.583 111.24C154.305 110.643 153.916 107.881 154.726 104.858C155.536 101.835 157.254 99.6371 158.659 99.7588C158.732 99.76 158.8 99.7782 158.867 99.7964C159.751 100.033 160.266 101.2 160.34 102.794L158.774 103.066C157.463 104.053 156.547 107.166 157.291 108.603L158.464 109.591C157.62 110.839 156.631 111.539 155.782 111.312C155.72 111.304 155.657 111.269 155.583 111.24V111.24Z" fill="#FFB743"/>
<path d="M144.538 114.688C143.623 111.512 143.861 108.791 145.294 105.853C145.294 105.853 145.305 105.847 145.299 105.836C145.471 105.463 145.317 105.021 144.955 104.843C144.583 104.67 144.141 104.825 143.962 105.186C142.454 108.268 142.13 111.139 142.928 114.411L143.078 114.497C143.332 114.638 143.579 114.768 143.831 114.881C144.066 114.989 144.288 115.076 144.521 115.157C144.575 115.026 144.593 114.857 144.538 114.688V114.688Z" fill="#D87012"/>
<path d="M149.559 99.0406C149.509 99.2274 149.537 99.4262 149.637 99.5985C149.736 99.7708 149.911 99.8995 150.098 99.9496C150.499 100.048 150.902 99.8011 151.001 99.3997C151.578 97.0422 153.756 94.8226 155.956 94.3563L155.967 94.3501C156.083 94.3265 156.18 94.2705 156.27 94.2038C156.114 94.0071 155.957 93.8104 155.796 93.6307C155.616 93.4187 155.408 93.2083 155.207 93.0087C152.629 93.7651 150.245 96.2755 149.559 99.0406V99.0406Z" fill="#D87012"/>
<path d="M113.947 92.8115C113.919 92.9859 113.946 93.157 114.033 93.3077C114.145 93.5015 114.337 93.6349 114.556 93.6663C114.966 93.7307 115.34 93.4577 115.41 93.0579C115.589 91.9499 116.062 91.2029 116.9 90.6903C117.127 90.5597 117.257 90.3124 117.259 90.0672L116.517 90.0504L115.323 90.0218C114.59 90.7175 114.133 91.6418 113.947 92.8115V92.8115Z" fill="#D87012"/>
<path d="M119.304 100.673C118.766 99.6912 118.978 98.2916 119.319 97.391C119.468 97.0032 119.265 96.5754 118.883 96.4368C118.495 96.2874 118.067 96.4913 117.929 96.8728C117.554 97.8646 117.33 99.2427 117.644 100.483L118.652 101.035L119.309 101.402C119.424 101.178 119.435 100.899 119.304 100.673V100.673Z" fill="#D87012"/>
<path d="M136.871 99.9915C137.242 97.8247 138.196 95.7956 139.621 94.1114L139.632 94.1052C139.897 93.794 139.869 93.3222 139.541 93.0523C139.229 92.7869 138.758 92.8152 138.488 93.1433C136.891 95.0272 135.824 97.3082 135.408 99.7451C135.38 99.9195 135.407 100.091 135.494 100.241C135.605 100.435 135.797 100.568 136.016 100.6C136.416 100.671 136.796 100.408 136.871 99.9915Z" fill="#D87012"/>
<path d="M173.615 110.793L173.924 109.638L158.007 105.964L170.748 105.901L170.603 104.233L170.347 101.079L158.791 103.071C157.491 104.051 156.564 107.17 157.308 108.608L170.901 114.771L172.379 115.44L173.615 110.793Z" fill="#5D9D20"/>
</g>
<g filter="url(#filter1_d)">
<path d="M50.9043 57.4676L45.5141 58.9119C41.7961 59.9128 39.5896 63.7345 40.5818 67.4549L43.2769 66.7328C42.8065 64.9509 43.5592 63.0715 45.1297 62.1071C45.1099 62.5137 45.1504 62.9208 45.2498 63.3156L45.972 66.0106L48.667 65.2885L47.9449 62.5934C47.7455 61.8492 48.1872 61.0842 48.9314 60.8848C49.6756 60.6854 50.4406 61.1271 50.64 61.8713L51.3621 64.5663L54.0572 63.8442L53.3351 61.1491C53.2238 60.7576 53.0553 60.3846 52.8349 60.0425C54.6771 60.0925 56.2687 61.3437 56.7523 63.1221L59.4474 62.3999C58.4464 58.6819 54.6247 56.4754 50.9043 57.4676Z" fill="#763A02"/>
<path d="M27.7508 8.78854C28.66 12.1817 27.9186 15.8049 25.7495 18.5682L18.5708 27.7132C14.4136 33.0096 12.9926 39.9543 14.7356 46.4579C17.7932 57.8691 29.5226 64.6411 40.9338 61.5835L56.2068 57.4911C67.618 54.4335 74.3899 42.704 71.3323 31.2929C69.59 24.7891 64.8871 19.4853 58.6386 16.9771L47.8492 12.6466C44.589 11.3381 42.1354 8.57093 41.2262 5.17782L27.7508 8.78854Z" fill="#FCC78A"/>
<path d="M30.4459 8.06635L29.0272 2.77187C28.086 -0.740836 25.7877 -3.73592 22.6382 -5.55401C20.3178 -6.89397 18.6245 -9.10065 17.931 -11.6889C20.5193 -12.3825 23.277 -12.0194 25.5976 -10.6799C29.8411 -8.23 32.9374 -4.19494 34.2058 0.537916L35.836 6.62206L30.4459 8.06635Z" fill="#33BC00"/>
<path d="M39.2532 8.59503L37.8346 3.30054C36.8934 -0.212161 37.3862 -3.95512 39.2047 -7.10439C40.5442 -9.42503 40.9073 -12.1827 40.2138 -14.771C37.6255 -14.0775 35.4188 -12.3842 34.0789 -10.0638C31.6288 -5.82041 30.9648 -0.777774 32.2328 3.95517L33.8631 10.0393L39.2532 8.59503Z" fill="#008100"/>
<path d="M65.0247 34.7032C67.8448 45.228 61.5988 56.0463 51.074 58.8664L46.0666 60.2082C35.5418 63.0283 24.7235 56.7823 21.9034 46.2575C20.5491 41.2033 21.2579 35.818 23.8742 31.2866L28.4267 23.4013C31.1068 18.7598 31.8331 13.2435 30.4459 8.06643L38.5311 5.9C39.9183 11.0771 43.3054 15.4912 47.9472 18.1708L55.8324 22.7234C60.3639 25.3396 63.6704 29.6489 65.0247 34.7032Z" fill="#FADBB7"/>
<path d="M32.8431 52.4209C35.7191 58.2386 42.3017 61.2171 48.5703 59.5372C54.8389 57.8578 59.0504 51.987 58.6323 45.5107C58.2117 38.986 55.3138 32.8687 50.5319 28.41L46.8877 25.0132C41.5531 20.0397 37.7237 13.667 35.836 6.6221L33.1409 7.34424C35.0286 14.3892 34.8986 21.8228 32.7655 28.7972L31.3079 33.5611C29.3959 39.8134 29.945 46.56 32.8431 52.4209Z" fill="#FCE9CC"/>
</g>
<g filter="url(#filter2_d)">
<path d="M151.842 52.0135L151.802 52.0323C150.214 52.9936 148.795 53.9496 147.509 54.8761L147.516 54.8895C148.353 55.9304 149.727 56.4753 151.125 56.1587C152.193 55.9225 153.044 55.2395 153.522 54.354L153.543 54.328C152.739 53.7788 152.151 52.9404 151.842 52.0135V52.0135Z" fill="#3B601C"/>
<path d="M143.281 46.5106L139.173 50.6261C137.062 50.8503 135.11 48.9798 134.745 47.5307L135.118 45.4022C135.611 45.671 136.129 45.904 136.671 46.1011C138.824 46.8961 141.096 46.998 143.281 46.5106V46.5106Z" fill="#4E7A25"/>
<path d="M129.745 39.1409C130.208 40.2577 130.78 41.2913 131.462 42.2086C129.943 45.0022 125.635 45.1299 124.04 42.3407C123.888 41.1362 123.788 40.3078 123.782 40.2612C125.024 40.6798 126.41 40.7044 127.758 40.2472C128.512 39.9859 129.181 39.6162 129.745 39.1409Z" fill="#3B601C"/>
<path d="M118.976 38.4785L119.945 45.8696L119.898 45.875C117.412 46.0856 115.231 44.2321 115.021 41.7461C114.894 40.1941 115.573 38.7569 116.696 37.8492L116.865 37.5985C116.982 37.6747 117.109 37.7544 117.237 37.8341C117.792 38.1477 118.383 38.3628 118.976 38.4785V38.4785Z" fill="#45711A"/>
<path d="M116.364 41.1196C116.268 39.9133 116.651 38.7698 117.357 37.9004C117.312 37.8727 117.272 37.8583 117.227 37.8306C117.096 37.7607 116.979 37.6845 116.855 37.5949L116.686 37.8456C115.554 38.7498 114.884 40.1905 115.011 41.7425C115.212 44.2249 117.393 46.0784 119.889 45.8714L119.945 45.8696L119.848 45.1541C117.987 44.7219 116.535 43.1337 116.364 41.1196Z" fill="#405E24"/>
<path d="M130.41 40.5318C128.92 42.6332 125.687 42.8731 123.898 41.1066C123.942 41.446 123.994 41.8553 124.054 42.3344C125.639 45.12 129.943 45.0022 131.475 42.2023C131.081 41.6908 130.729 41.1274 130.41 40.5318V40.5318Z" fill="#405E24"/>
<path d="M135.104 45.4416L134.735 47.5272C135.09 48.9727 137.052 50.8467 139.163 50.6225L140.728 49.0504C138.23 48.9888 135.846 47.0502 135.104 45.4416Z" fill="#405E24"/>
<path d="M151.627 54.7796C150.523 55.0247 149.433 54.7396 148.608 54.0937C148.233 54.3586 147.861 54.6137 147.509 54.876L147.516 54.8895C148.353 55.9303 149.727 56.4752 151.125 56.1586C152.193 55.9225 153.044 55.2395 153.522 54.3539L153.543 54.328C153.409 54.2348 153.28 54.1318 153.16 54.0323C152.729 54.3886 152.207 54.6562 151.627 54.7796V54.7796Z" fill="#4D841E"/>
<path d="M144.374 45.3467L133.156 56.5232L135.118 45.4022C133.687 44.6137 132.444 43.5253 131.475 42.2023L128.778 52.0962C127.988 54.2963 125.687 54.1505 125.327 51.9223L123.578 38.4916L118.959 38.372L122.284 63.8992C122.33 65.7341 123.489 67.3607 125.233 67.9953L129.774 69.648C131.615 70.3184 133.636 69.6706 134.871 68.1459C138.203 64.0489 141.268 59.7656 147.638 55.1349L153.099 51.2553L144.374 45.3467Z" fill="#DDEBA1"/>
<path d="M131.668 69.5008L127.127 67.8481C125.393 67.2171 124.224 65.5869 124.178 63.752L120.905 38.5114L118.98 38.4687L122.284 63.8992C122.33 65.7341 123.489 67.3607 125.233 67.9953L129.774 69.648C130.67 69.9742 131.654 69.9978 132.57 69.7178C132.26 69.6828 131.963 69.6083 131.668 69.5008V69.5008Z" fill="#C1D160"/>
<path d="M132.9 43.803C132.377 43.3112 131.9 42.7809 131.471 42.2121L128.774 52.106C128.626 52.543 128.37 52.9406 128.033 53.253C128.882 53.8631 130.133 53.4596 130.681 51.9526L132.9 43.803Z" fill="#C1D160"/>
<path d="M144.783 44.8373L133.159 56.5465L132.86 58.256C132.641 59.2249 132.961 59.542 133.445 59.5618C133.848 59.5861 134.232 59.391 134.499 59.0866L147.232 45.7398L144.783 44.8373Z" fill="#C1D160"/>
<path d="M123.087 29.2997C120.44 30.6565 119.09 33.7233 120.053 36.5616C120.302 37.2879 120.673 37.9247 121.142 38.4747C119.849 38.7179 118.468 38.5277 117.24 37.8243C114.494 36.2671 113.535 32.7724 115.092 30.0263C116.649 27.2802 120.144 26.3212 122.89 27.8784L123.043 27.8892C123.003 28.3656 123.014 28.8268 123.087 29.2997V29.2997Z" fill="#45711A"/>
<path d="M151.738 50.6146C150.267 50.6706 148.833 50.2269 147.656 49.3856C146.69 48.6994 145.904 47.7329 145.415 46.5623C145.325 46.3509 145.254 46.1467 145.187 45.9326L145.164 45.9353C142.426 46.9912 139.455 47.1256 136.667 46.111C133.377 44.9136 131.092 42.3974 129.755 39.1444C129.181 39.6162 128.521 39.9895 127.782 40.2445C125.325 41.0793 122.707 40.3048 121.152 38.4783C120.683 37.9283 120.312 37.2915 120.063 36.5651C119.106 33.7404 120.446 30.67 123.097 29.3033C123.023 28.8304 123.013 28.3692 123.049 27.9027C123.471 23.126 129.741 19.2619 134.347 24.4743C140.746 16.9761 152.052 23.2106 152.526 30.2433C157.392 29.7164 160.294 35.5024 157.561 38.1998L157.709 38.2536C161.137 39.5012 162.903 43.2898 161.659 46.7076C161.251 47.8305 160.558 48.7832 159.706 49.4993C160.105 50.4254 160.165 51.518 159.792 52.5424C159.011 54.6896 156.633 55.7985 154.486 55.0169C152.713 54.3716 151.626 52.3922 151.738 50.6146V50.6146Z" fill="#6CAC34"/>
<path d="M155.91 51.0734C154.147 50.4317 153.06 48.4523 153.165 46.6612C151.695 46.7172 150.261 46.2735 149.084 45.4323C148.118 44.746 147.328 43.7893 146.843 42.6089C146.753 42.3975 146.682 42.1933 146.615 41.9793L146.592 41.9819C143.854 43.0379 140.882 43.1722 138.095 42.1576C134.805 40.9603 132.519 38.444 131.183 35.1911C130.609 35.6628 129.949 36.0361 129.209 36.2911C126.753 37.1259 124.134 36.3514 122.579 34.5249C122.11 33.975 121.73 33.3345 121.491 32.6118C121.285 32.0126 121.192 31.4099 121.179 30.8027C119.863 32.365 119.36 34.5133 120.057 36.5517C120.306 37.278 120.676 37.9149 121.145 38.4649C122.704 40.2815 125.319 41.0658 127.775 40.231C128.515 39.976 129.185 39.6063 129.748 39.131C131.089 42.3741 133.371 44.9002 136.661 46.0976C139.448 47.1121 142.42 46.9778 145.158 45.9219L145.181 45.9192C145.248 46.1332 145.319 46.3374 145.409 46.5488C145.898 47.7194 146.687 48.6761 147.65 49.3722C148.827 50.2134 150.261 50.6571 151.731 50.6011C151.616 52.3886 152.703 54.368 154.476 55.0133C156.623 55.7949 159.001 54.686 159.782 52.5388C160.044 51.8197 160.091 51.0782 159.968 50.3752C158.868 51.2803 157.348 51.5968 155.91 51.0734V51.0734Z" fill="#5D9D20"/>
<path d="M120.094 36.6654C120.038 36.6341 119.983 36.6027 119.927 36.5714C117.181 35.0141 116.222 31.5195 117.779 28.7733C118.124 28.1627 118.569 27.6443 119.068 27.2236C117.449 27.5043 115.963 28.4916 115.092 30.0263C113.535 32.7724 114.494 36.2671 117.24 37.8243C118.471 38.5178 119.849 38.7179 121.142 38.4747C120.695 37.9552 120.337 37.3452 120.094 36.6654V36.6654Z" fill="#405E24"/>
</g>
<defs>
<filter id="filter0_d" x="103.006" y="68.676" width="81.8245" height="64.9715" filterUnits="userSpaceOnUse" color-interpolation-filters="sRGB">
<feFlood flood-opacity="0" result="BackgroundImageFix"/>
<feColorMatrix in="SourceAlpha" type="matrix" values="0 0 0 0 0 0 0 0 0 0 0 0 0 0 0 0 0 0 127 0"/>
<feOffset dx="4" dy="4"/>
<feColorMatrix type="matrix" values="0 0 0 0 0 0 0 0 0 0 0 0 0 0 0 0 0 0 0.1 0"/>
<feBlend mode="normal" in2="BackgroundImageFix" result="effect1_dropShadow"/>
<feBlend mode="normal" in="SourceGraphic" in2="effect1_dropShadow" result="shape"/>
</filter>
<filter id="filter1_d" x="6.19012" y="-14.771" width="74.6785" height="86.2259" filterUnits="userSpaceOnUse" color-interpolation-filters="sRGB">
<feFlood flood-opacity="0" result="BackgroundImageFix"/>
<feColorMatrix in="SourceAlpha" type="matrix" values="0 0 0 0 0 0 0 0 0 0 0 0 0 0 0 0 0 0 127 0"/>
<feOffset dx="4" dy="4"/>
<feColorMatrix type="matrix" values="0 0 0 0 0 0 0 0 0 0 0 0 0 0 0 0 0 0 0.1 0"/>
<feBlend mode="normal" in2="BackgroundImageFix" result="effect1_dropShadow"/>
<feBlend mode="normal" in="SourceGraphic" in2="effect1_dropShadow" result="shape"/>
</filter>
<filter id="filter2_d" x="110.172" y="14.9512" width="61.8145" height="64.042" filterUnits="userSpaceOnUse" color-interpolation-filters="sRGB">
<feFlood flood-opacity="0" result="BackgroundImageFix"/>
<feColorMatrix in="SourceAlpha" type="matrix" values="0 0 0 0 0 0 0 0 0 0 0 0 0 0 0 0 0 0 127 0"/>
<feOffset dx="4" dy="4"/>
<feColorMatrix type="matrix" values="0 0 0 0 0 0 0 0 0 0 0 0 0 0 0 0 0 0 0.1 0"/>
<feBlend mode="normal" in2="BackgroundImageFix" result="effect1_dropShadow"/>
<feBlend mode="normal" in="SourceGraphic" in2="effect1_dropShadow" result="shape"/>
</filter>
</defs>
</svg>
