<svg id="Logo" xmlns="http://www.w3.org/2000/svg" width="100" height="70" viewBox="0 0 100 70">
  <path id="Rectangle_1714" data-name="Rectangle 1714" d="M33.333,0H66.667a0,0,0,0,1,0,0V33.333A33.333,33.333,0,0,1,33.333,66.667h0A33.333,33.333,0,0,1,0,33.333v0A33.333,33.333,0,0,1,33.333,0Z" transform="translate(66.667 66.667) rotate(180)" fill="#1a1824" opacity="0.1"/>
  <path id="Rectangle_1712" data-name="Rectangle 1712" d="M33.333,0H66.667a0,0,0,0,1,0,0V33.333A33.333,33.333,0,0,1,33.333,66.667h0A33.333,33.333,0,0,1,0,33.333v0A33.333,33.333,0,0,1,33.333,0Z" transform="translate(33.333 3.334)" fill="#f57b51"/>
</svg>
