<svg width="128" height="136" viewBox="0 0 128 136" fill="none" xmlns="http://www.w3.org/2000/svg">
<g filter="url(#filter0_d)">
<path d="M121.379 72.8276H4.4138C4.4138 57.0244 10.6916 41.8684 21.8662 30.6938C33.0408 19.5192 48.1968 13.2414 64 13.2414L86.069 19.8621L110.345 44.1379L121.379 72.8276Z" fill="#DDDDDD"/>
<path d="M11.0345 88.2758C10.5333 89.53 10.5218 90.9267 11.0021 92.1889C11.4824 93.4512 12.4195 94.4869 13.6276 95.0907L52.9655 114.759L97.1035 110.345V90.4827H48.5517C47.3811 90.4827 46.2584 90.9477 45.4307 91.7755C44.603 92.6032 44.1379 93.7259 44.1379 94.8965L19.8621 86.0689C15.4483 83.862 12.3255 85.0626 11.0345 88.2758Z" fill="#FFE6B0"/>
<path d="M116.966 90.4827L128 101.517V128L112.552 110.345H105.931V90.4827H116.966Z" fill="#FFE6B0"/>
<path d="M101.517 114.759C103.955 114.759 105.931 112.783 105.931 110.345V90.4828C105.931 88.0451 103.955 86.069 101.517 86.069C99.0796 86.069 97.1035 88.0451 97.1035 90.4828V110.345C97.1035 112.783 99.0796 114.759 101.517 114.759Z" fill="#D63447"/>
<path d="M128 77.2414C128 74.8037 126.024 72.8276 123.586 72.8276H4.4138C1.97613 72.8276 0 74.8037 0 77.2414C0 79.679 1.97612 81.6552 4.4138 81.6552H123.586C126.024 81.6552 128 79.679 128 77.2414Z" fill="#A7A7A7"/>
<path d="M64 13.2414C60.3435 13.2414 57.3793 10.2772 57.3793 6.62069C57.3793 2.96418 60.3435 0 64 0C67.6565 0 70.6207 2.96418 70.6207 6.62069C70.6207 10.2772 67.6565 13.2414 64 13.2414Z" fill="#DDDDDD"/>
<path d="M21.7997 49.6088C25.8557 41.94 31.9313 35.5261 39.3693 31.061C46.8074 26.596 55.3247 24.2496 64 24.2759V19.8621C54.5305 19.8297 45.2325 22.387 37.1114 27.2574C28.9904 32.1278 22.3555 39.1258 17.9244 47.4946L21.7997 49.6088Z" fill="white"/>
<path d="M19.6916 53.952L15.7457 51.9791L13.5399 56.3906L17.4858 58.3636L19.6916 53.952Z" fill="white"/>
<path d="M64 13.2414C79.8032 13.2414 94.9592 19.5192 106.134 30.6938C117.308 41.8684 123.586 57.0244 123.586 72.8276H110.345C110.345 30.8966 64 13.2414 64 13.2414Z" fill="#CCCCCC"/>
</g>
<defs>
<filter id="filter0_d" x="0" y="0" width="136" height="136" filterUnits="userSpaceOnUse" color-interpolation-filters="sRGB">
<feFlood flood-opacity="0" result="BackgroundImageFix"/>
<feColorMatrix in="SourceAlpha" type="matrix" values="0 0 0 0 0 0 0 0 0 0 0 0 0 0 0 0 0 0 127 0"/>
<feOffset dx="8" dy="8"/>
<feColorMatrix type="matrix" values="0 0 0 0 0 0 0 0 0 0 0 0 0 0 0 0 0 0 0.1 0"/>
<feBlend mode="normal" in2="BackgroundImageFix" result="effect1_dropShadow"/>
<feBlend mode="normal" in="SourceGraphic" in2="effect1_dropShadow" result="shape"/>
</filter>
</defs>
</svg>
